<?xml version="1.0" encoding="UTF-8"?>
<svg xmlns="http://www.w3.org/2000/svg" width="217.08" height="352.754" viewBox="0 0 217.08 352.754">
  <g id="Group_9552" data-name="Group 9552" transform="translate(222.939 6.978)">
    <path id="fullLogo" d="M-15.821,74.427a81.405,81.405,0,0,1-81.4,81.4,81.405,81.405,0,0,1-81.4-81.4,81.405,81.405,0,0,1,81.4-81.4,81.405,81.405,0,0,1,81.4,81.4" transform="translate(-17.173 0)" fill="#9dbf3b"></path>
    <path id="fullLogo-2" data-name="fullLogo" d="M-32.994,125.945a81.405,81.405,0,0,1-81.4,81.4,81.405,81.405,0,0,1-81.4-81.4h-27.135v271.35H-5.859V125.945Z" transform="translate(0 -51.518)" fill="#002942"></path>
    <path id="fullLogo-3" data-name="fullLogo" d="M-102.172,184.821c37.568,7.933,85.866-13.135,99.708-50.388.884,41.67-50.215,74.164-99.708,50.388" transform="translate(-46.807 -54.808)" fill="#fff"></path>
    <path id="fullLogo-4" data-name="fullLogo" d="M-82.535,133.792c10.054,2.058,50.305,2.415,67.7-7.088,7.626-4.167,10.109-7.339,11.712-11.224,8.32,7.6-3.619,24.063-31.1,26.711-10.035.967-31.826-1.137-48.312-8.4" transform="translate(-54.418 -47.462)" fill="#fff"></path>
    <path id="fullLogo-5" data-name="fullLogo" d="M-90.949,69.354c-22.63.842-47.607,10.678-51.295,23.707-4.3,15.192,16.591,22.261,22.8,24.474-7.6,1.475-38.5-2.484-32.614-27.58,3.8-16.207,32.049-24.535,61.106-20.6" transform="translate(-27.186 -29.21)" fill="#fff"></path>
    <path id="fullLogo-6" data-name="fullLogo" d="M-99.231,108.083c-9.471-1.434-11.673-6.22-11.372-10.313.259-3.515,2.6-8.4,12.262-11.724,11.611-3.989,30.4-1.787,33.006,5.721-31.318-7.042-34.692,10.076-33.9,16.315" transform="translate(-43.529 -35.295)" fill="#fff"></path>
    <path id="fullLogo-7" data-name="fullLogo" d="M-34.306,79.541a58.98,58.98,0,0,0-6.242.333c13.416,1.428,23.481,7.355,23.481,14.456s-12.289,14.986-25.706,16.413a59,59,0,0,0,6.242.333c16.416,0,34.675-8.579,34.675-16.746S-17.89,79.541-34.306,79.541" transform="translate(-69.829 -33.533)" fill="#fff"></path>
    <path id="fullLogo-8" data-name="fullLogo" d="M-80.733,177.323c-31.245,8.582-68.919-1.611-71.386-35.575,14.5,22.2,42.832,31.308,71.386,35.575" transform="translate(-27.448 -57.643)" fill="#fff"></path>
    <path id="fullLogo-9" data-name="fullLogo" d="M11.931,89.431C5.11,79.951-2.431,69.9-14.842,64.369c-15.46-6.891-36.3-8.143-47.425-8.509,21.613-10.288,71.347-4.208,74.2,33.571" transform="translate(-62.273 -22.628)" fill="#fff"></path>
    <path id="fullLogo-10" data-name="fullLogo" d="M-42.448,108.847c-5.976,2.248-17.932,1.263-22.521-3.657a15.777,15.777,0,0,1-2.56-3.69c-1.543,3.7-1.519,8.79,2.027,11.244,8.493,5.879,22.476-2.366,23.054-3.9" transform="translate(-59.856 -42.044)" fill="#fff"></path>
    <path id="fullLogo-11" data-name="fullLogo" d="M-174.087,411.36v5.033h5.1v3.64h-5.1v8.736h-4.526v-21.08h11.521v3.671Z" transform="translate(-17.18 -160.716)" fill="#9dbf3b"></path>
    <path id="fullLogo-12" data-name="fullLogo" d="M-147.491,428.987c-4.337,0-6.931-2.691-6.931-6.457v-9.242c0-3.736,2.595-6.426,6.931-6.426,4.368,0,6.931,2.69,6.931,6.426v9.242c0,3.766-2.564,6.457-6.931,6.457m2.374-15.952a2.195,2.195,0,0,0-2.374-2.374,2.186,2.186,0,0,0-2.342,2.374v9.748a2.186,2.186,0,0,0,2.342,2.374,2.2,2.2,0,0,0,2.374-2.374Z" transform="translate(-26.556 -160.396)" fill="#9dbf3b"></path>
    <path id="fullLogo-13" data-name="fullLogo" d="M-117.23,429.307c-3.988,0-6.9-2.406-6.9-5.919v-15.7h4.589v15.636a2.045,2.045,0,0,0,2.311,2.215,2.079,2.079,0,0,0,2.374-2.215V407.689h4.4v15.7c0,3.513-2.754,5.919-6.773,5.919" transform="translate(-38.296 -160.716)" fill="#9dbf3b"></path>
    <path id="fullLogo-14" data-name="fullLogo" d="M-83.133,428.77l-4.653-8.451-1.8-3.45v11.9h-4.146v-21.08h3.766l4.526,8.641,1.709,3.45v-12.09h4.084v21.08Z" transform="translate(-50.076 -160.716)" fill="#9dbf3b"></path>
    <path id="fullLogo-15" data-name="fullLogo" d="M-55.592,428.77h-7.026V407.69h7.026c4.368,0,6.71,2.817,6.71,6.33v8.673c0,3.545-2.343,6.077-6.71,6.077m2.185-14.655c0-1.678-.791-2.659-2.532-2.659h-2.153V425h2.153c1.741,0,2.532-.982,2.532-2.659Z" transform="translate(-62.137 -160.717)" fill="#9dbf3b"></path>
    <path id="fullLogo-16" data-name="fullLogo" d="M-25.459,428.77l-.887-4.179h-4.368l-.886,4.179h-4.241l4.937-21.081h5.064l4.907,21.081Zm-2.976-15.225-1.614,7.691h3.1Z" transform="translate(-72.515 -160.716)" fill="#9dbf3b"></path>
    <path id="fullLogo-17" data-name="fullLogo" d="M-.6,411.551v17.218H-5.126V411.551H-9.684v-3.862H3.926v3.862Z" transform="translate(-82.653 -160.716)" fill="#9dbf3b"></path>
    <rect id="fullLogo-18" data-name="fullLogo" width="4.526" height="21.08" transform="translate(-74.926 246.973)" fill="#9dbf3b"></rect>
    <path id="fullLogo-19" data-name="fullLogo" d="M40.821,428.987c-4.335,0-6.931-2.691-6.931-6.457v-9.242c0-3.736,2.6-6.426,6.931-6.426,4.368,0,6.932,2.69,6.932,6.426v9.242c0,3.766-2.564,6.457-6.932,6.457M43.2,413.035a2.358,2.358,0,1,0-4.716,0v9.748a2.358,2.358,0,1,0,4.716,0Z" transform="translate(-99.542 -160.396)" fill="#9dbf3b"></path>
    <path id="fullLogo-20" data-name="fullLogo" d="M74.837,428.77l-4.653-8.451-1.8-3.45v11.9H64.234v-21.08H68l4.526,8.641,1.709,3.45v-12.09h4.084v21.08Z" transform="translate(-111.302 -160.716)" fill="#9dbf3b"></path>
    <path id="fullLogo-21" data-name="fullLogo" d="M-149.436,357.42c-4.728,0-6.522-3.261-6.522-8.315v-8.886c0-2.853-1.467-5.3-4.81-5.3h-6.277v22.175H-178.7V302.8h19.565c8.8,0,14.1,5.055,14.1,12.881v5.868c0,4.4-2.12,7.745-7.011,9.05a9.139,9.139,0,0,1,7.255,8.967v8.886A6.883,6.883,0,0,0-142.507,354v3.425Zm-6.848-41.087c0-2.69-1.141-4.4-4.157-4.4h-6.6V326.85h6.113c3.017,0,4.647-1.55,4.647-4.81Z" transform="translate(-17.145 -120.064)" fill="#fff"></path>
    <path id="fullLogo-22" data-name="fullLogo" d="M-89.1,357.654c-11.168,0-17.853-6.928-17.853-16.629v-23.8c0-9.619,6.685-16.548,17.853-16.548,11.25,0,17.853,6.929,17.853,16.548v23.8c0,9.7-6.6,16.629-17.853,16.629m6.114-41.086c0-3.668-2.2-6.114-6.114-6.114-3.831,0-6.033,2.445-6.033,6.114v25.109c0,3.667,2.2,6.114,6.033,6.114,3.913,0,6.114-2.446,6.114-6.114Z" transform="translate(-44.955 -119.239)" fill="#fff"></path>
    <path id="fullLogo-23" data-name="fullLogo" d="M-16.824,357.654c-10.679,0-17.446-6.114-17.446-15.407v-2.771h10.68v1.793c0,4.566,2.282,7.011,6.521,7.011,4.157,0,6.2-2.363,6.2-6.113,0-3.914-3.1-6.277-9.374-9.538-6.522-3.5-13.452-7.826-13.452-16.141s5.951-15.814,17.038-15.814c9.946,0,16.549,6.683,16.549,15.326v2.2H-10.629v-1.712c0-3.669-2.038-6.522-6.113-6.522-3.424,0-5.625,2.12-5.625,5.381,0,3.831,3.1,5.952,10.027,9.538,7.581,4.158,12.88,8.4,12.88,16.3,0,8.8-6.521,16.467-17.363,16.467" transform="translate(-73.124 -119.239)" fill="#fff"></path>
    <path id="fullLogo-24" data-name="fullLogo" d="M37.881,357.094V302.8H68.125v9.782H49.538v11.9h12.8v8.8h-12.8V346.9H68.125v10.191Z" transform="translate(-101.088 -120.064)" fill="#fff"></path>
    <path id="fullLogo-25" data-name="fullLogo" d="M-176.46,460.3v5.587h3.435v1.873h-3.435v7.69h-2.153V458.378h6.587V460.3Z" transform="translate(-17.18 -180.362)" fill="#fff"></path>
    <path id="fullLogo-26" data-name="fullLogo" d="M-159.943,475.563c-2.615,0-4.025-1.769-4.025-4.2V462.08c0-2.41,1.41-4.2,4.025-4.2s4.024,1.794,4.024,4.2v9.278c0,2.436-1.41,4.2-4.024,4.2m1.9-13.713a1.825,1.825,0,0,0-1.9-2.026,1.812,1.812,0,0,0-1.9,2.026v9.74a1.8,1.8,0,0,0,1.9,2.026,1.813,1.813,0,0,0,1.9-2.026Z" transform="translate(-22.856 -180.168)" fill="#fff"></path>
    <path id="fullLogo-27" data-name="fullLogo" d="M-137.99,475.6c-1.563,0-2.153-.462-2.153-2.052v-3.9c0-1.025-.462-1.692-1.462-1.692h-1.922v7.484h-2.153V458.377h4.178c2.179,0,3.409,1.077,3.409,3.436V464.4c0,1.46-.461,2.384-1.82,2.717a2.489,2.489,0,0,1,1.9,2.667v3.64c0,.462.154.667.589.667V475.6Zm-2.23-13.869c0-.9-.385-1.434-1.308-1.434h-2v5.946h1.794c.948,0,1.512-.59,1.512-1.666Z" transform="translate(-29.944 -180.362)" fill="#fff"></path>
    <path id="fullLogo-28" data-name="fullLogo" d="M-115.99,475.563a3.818,3.818,0,0,1-4-4.1v-9.486a3.831,3.831,0,0,1,4-4.1,3.633,3.633,0,0,1,3.9,3.948v2.332h-1.9v-2.384a1.785,1.785,0,0,0-1.922-1.948,1.784,1.784,0,0,0-1.949,1.872v10.048a1.771,1.771,0,0,0,1.949,1.872,1.773,1.773,0,0,0,1.922-1.948v-2.409h1.9v2.358a3.633,3.633,0,0,1-3.9,3.948" transform="translate(-39.901 -180.168)" fill="#fff"></path>
    <path id="fullLogo-29" data-name="fullLogo" d="M-98.639,475.563c-2.615,0-4.025-1.769-4.025-4.2V462.08c0-2.41,1.41-4.2,4.025-4.2s4.024,1.794,4.024,4.2v9.278c0,2.436-1.41,4.2-4.024,4.2m1.9-13.713a1.825,1.825,0,0,0-1.9-2.026,1.812,1.812,0,0,0-1.9,2.026v9.74a1.8,1.8,0,0,0,1.9,2.026,1.813,1.813,0,0,0,1.9-2.026Z" transform="translate(-46.616 -180.168)" fill="#fff"></path>
    <path id="fullLogo-30" data-name="fullLogo" d="M-75.406,475.45v-13.1l-.564,3.1-1.948,10h-2.051l-1.948-10-.564-3.1v13.1h-1.9V458.378h3.025l1.922,10.613.564,3.1.538-3.128,1.9-10.587h2.973V475.45Z" transform="translate(-53.703 -180.362)" fill="#fff"></path>
    <path id="fullLogo-31" data-name="fullLogo" d="M-52.1,475.45v-13.1l-.563,3.1-1.949,10h-2.05l-1.948-10-.564-3.1v13.1h-1.9V458.378h3.025l1.922,10.613.564,3.1.538-3.128,1.9-10.587h2.974V475.45Z" transform="translate(-62.737 -180.362)" fill="#fff"></path>
    <path id="fullLogo-32" data-name="fullLogo" d="M-33.872,475.758a3.713,3.713,0,0,1-3.973-3.922V458.378h2.127v13.51c0,1.281.615,1.948,1.871,1.948,1.283,0,1.872-.667,1.872-1.948v-13.51h2.1v13.458a3.72,3.72,0,0,1-4,3.922" transform="translate(-71.739 -180.362)" fill="#fff"></path>
    <path id="fullLogo-33" data-name="fullLogo" d="M-12.8,475.45l-3.562-8.486-1.129-2.87V475.45h-2.024V458.378h1.82l3.357,8.613,1.052,2.9v-11.51h2.025V475.45Z" transform="translate(-78.843 -180.362)" fill="#fff"></path>
    <rect id="fullLogo-34" data-name="fullLogo" width="2.154" height="17.072" transform="translate(-86.802 278.016)" fill="#fff"></rect>
    <path id="fullLogo-35" data-name="fullLogo" d="M11.952,460.352v15.1H9.825v-15.1h-2.9v-1.974H14.8v1.974Z" transform="translate(-89.092 -180.362)" fill="#fff"></path>
    <rect id="fullLogo-36" data-name="fullLogo" width="2.154" height="17.072" transform="translate(-71.81 278.016)" fill="#fff"></rect>
    <path id="fullLogo-37" data-name="fullLogo" d="M32.79,475.45V458.378H39.48v1.949H34.918v5.305h3.307V467.5H34.918v6H39.48v1.948Z" transform="translate(-99.115 -180.362)" fill="#fff"></path>
    <path id="fullLogo-38" data-name="fullLogo" d="M51.45,475.563a3.7,3.7,0,0,1-3.973-3.82v-1.562h2.1v1.332c0,1.436.667,2.255,1.872,2.255a1.754,1.754,0,0,0,1.872-1.974c0-1.589-.641-2.742-2.384-4.306-1.564-1.385-3.281-3.359-3.281-5.588a3.685,3.685,0,0,1,3.87-4.024,3.619,3.619,0,0,1,3.793,3.845v1.589H53.3v-1.359c0-1.308-.564-2.2-1.82-2.2a1.572,1.572,0,0,0-1.718,1.743c0,1.666.666,2.64,2.666,4.46,1.974,1.769,3,3.384,3,5.46a3.827,3.827,0,0,1-3.973,4.153" transform="translate(-104.808 -180.168)" fill="#fff"></path>
    <path id="fullLogo-39" data-name="fullLogo" d="M79.975,475.563a3.26,3.26,0,0,1-2.384-1.255,4.189,4.189,0,0,1-3,1.255c-2.2,0-3.64-1.769-3.64-4.126,0-2.307,1.1-3.9,2.9-5.408A12.72,12.72,0,0,1,73.106,462c0-2.358,1.2-4.127,3.255-4.127,1.974,0,2.821,1.59,2.821,3.614,0,2.077-1.333,3.742-3.154,5.153a24.319,24.319,0,0,0,1.642,4.741,11.006,11.006,0,0,0,1.434-4.87H80.8a13.572,13.572,0,0,1-2.05,6.434,1.659,1.659,0,0,0,1.307.82c.461,0,.691-.256.691-.846v-1.564H82.18V473c0,1.691-.819,2.562-2.2,2.562M74.413,467.9a4.609,4.609,0,0,0-1.436,3.229c0,1.744.795,2.59,2.077,2.59a1.867,1.867,0,0,0,1.436-.667,20.984,20.984,0,0,1-2.076-5.152m1.923-8.1c-.847,0-1.333.718-1.333,2.179a16.017,16.017,0,0,0,.462,3.05,4.709,4.709,0,0,0,1.9-3.46c0-1.128-.282-1.769-1.025-1.769" transform="translate(-113.906 -180.168)" fill="#fff"></path>
    <path id="fullLogo-40" data-name="fullLogo" d="M-174.86,504.171v9.281h-1.886v-9.281h-3.722v-1.639h9.33v1.639Z" transform="translate(-16.461 -197.475)" fill="#fff"></path>
    <path id="fullLogo-41" data-name="fullLogo" d="M-153.622,513.451v-4.723h-5.624v4.723h-1.886v-10.92h1.886v4.624h5.624v-4.624h1.886v10.92Z" transform="translate(-23.955 -197.475)" fill="#fff"></path>
    <path id="fullLogo-42" data-name="fullLogo" d="M-140.484,513.451v-10.92h7.9v1.639H-138.6v2.836h4.525v1.558H-138.6v3.247h6.017v1.639Z" transform="translate(-31.958 -197.475)" fill="#fff"></path>
    <path id="fullLogo-43" data-name="fullLogo" d="M-115.1,513.451v-10.92h7.9v1.639h-6.017v2.836h4.525v1.558h-4.525v3.247h6.017v1.639Z" transform="translate(-41.798 -197.475)" fill="#fff"></path>
    <path id="fullLogo-44" data-name="fullLogo" d="M-89.888,513.451-95,506.959l-.9-1.246v7.739h-1.836v-10.92h1.656l4.968,6.542.886,1.23v-7.772H-88.4v10.92Z" transform="translate(-48.524 -197.475)" fill="#fff"></path>
    <path id="fullLogo-45" data-name="fullLogo" d="M-72.748,513.451h-1.639l-4.525-10.92h2.033l3.394,8.592,3.362-8.592h2.017Z" transform="translate(-55.821 -197.475)" fill="#fff"></path>
    <rect id="fullLogo-46" data-name="fullLogo" width="1.885" height="10.92" transform="translate(-121.81 305.056)" fill="#fff"></rect>
    <path id="fullLogo-47" data-name="fullLogo" d="M-40.759,513.516c-1,0-1.377-.59-1.41-1.7l-.033-1.444c-.033-.967-.443-1.476-1.935-1.476h-2.869v4.56h-1.886v-10.92h4.8c2.722,0,3.854,1.2,3.854,2.853v.36c0,1.2-.525,2.115-2.215,2.427a2.055,2.055,0,0,1,2.165,2.23l.017,1.279a1.161,1.161,0,0,0,.606,1.148v.688Zm-1.393-8.017c0-.739-.459-1.378-1.788-1.378h-3.066V507.5h3.066c1.2,0,1.788-.606,1.788-1.508Z" transform="translate(-67.457 -197.475)" fill="#fff"></path>
    <path id="fullLogo-48" data-name="fullLogo" d="M-25.461,513.577a4.6,4.6,0,0,1-4.951-4.624v-2.378c0-2.476,1.786-4.607,4.951-4.607s4.953,2.132,4.953,4.607v2.378a4.6,4.6,0,0,1-4.953,4.624m3.05-7.017a2.822,2.822,0,0,0-3.05-2.951,2.822,2.822,0,0,0-3.049,2.951v2.41a2.835,2.835,0,0,0,3.049,2.968,2.835,2.835,0,0,0,3.05-2.968Z" transform="translate(-74.619 -197.257)" fill="#fff"></path>
    <path id="fullLogo-49" data-name="fullLogo" d="M-1.75,513.451l-5.115-6.493-.9-1.246v7.739H-9.6v-10.92h1.656l4.967,6.542.886,1.23v-7.772H-.257v10.92Z" transform="translate(-82.685 -197.475)" fill="#fff"></path>
    <path id="fullLogo-50" data-name="fullLogo" d="M21.976,513.451v-8.477l-.542,1.393-3.148,7.084h-1.36l-3.115-7.084-.541-1.393v8.477H11.5v-10.92h2.623l3.034,7.182.508,1.344.508-1.328,3-7.2h2.606v10.92Z" transform="translate(-90.863 -197.475)" fill="#fff"></path>
    <path id="fullLogo-51" data-name="fullLogo" d="M36.863,513.451v-10.92h7.9v1.639H38.748v2.836h4.525v1.558H38.748v3.247h6.017v1.639Z" transform="translate(-100.694 -197.475)" fill="#fff"></path>
    <path id="fullLogo-52" data-name="fullLogo" d="M62.07,513.451l-5.115-6.493-.9-1.246v7.739H54.217v-10.92h1.656l4.967,6.542.886,1.23v-7.772h1.837v10.92Z" transform="translate(-107.42 -197.475)" fill="#fff"></path>
    <path id="fullLogo-53" data-name="fullLogo" d="M79.186,504.171v9.281H77.3v-9.281H73.578v-1.639h9.33v1.639Z" transform="translate(-114.924 -197.475)" fill="#fff"></path>
  </g>
</svg>
